# xmcd CD database file
#
# Track frame offsets:
#	150
#	17150
#	38735
#	59540
#	76488
#	98058
#	129842
#
# Disc length: 4440 seconds
#
# Revision: 0
# Processed by: cddbd v1.5PL3 Copyright (c) Steve Scherf et al.
# Submitted via: CDex 1.50beta9
#
DISCID=4f115607
DTITLE=倖田來未 - Gentle Words
DYEAR=2003
DGENRE=JPop
TTITLE0=Gentle Words
TTITLE1=Without Your Love
TTITLE2=最後の雨
TTITLE3=Gentle Words "Instrumental"
TTITLE4=Without Your Love "Instrumental"
TTITLE5=最後の雨 "Instrumental"
TTITLE6=a
EXTD=YEAR: 2003.11.15
EXTT0=
EXTT1=
EXTT2=
EXTT3=
EXTT4=
EXTT5=
EXTT6=
PLAYORDER=
